<?xml version="1.0" encoding="UTF-8" standalone="no"?>
<!-- Created with Inkscape (http://www.inkscape.org/) -->

<svg
   xmlns:ns0="http://www.iki.fi/pav/software/textext/"
   xmlns:dc="http://purl.org/dc/elements/1.1/"
   xmlns:cc="http://creativecommons.org/ns#"
   xmlns:rdf="http://www.w3.org/1999/02/22-rdf-syntax-ns#"
   xmlns:svg="http://www.w3.org/2000/svg"
   xmlns="http://www.w3.org/2000/svg"
   xmlns:sodipodi="http://sodipodi.sourceforge.net/DTD/sodipodi-0.dtd"
   xmlns:inkscape="http://www.inkscape.org/namespaces/inkscape"
   width="234.84961"
   height="229.58401"
   id="svg2"
   version="1.1"
   inkscape:version="0.48.3.1 r9886"
   sodipodi:docname="papers_ICAI2013_results.svg">
  <sodipodi:namedview
     id="base"
     pagecolor="#ffffff"
     bordercolor="#666666"
     borderopacity="1.0"
     inkscape:pageopacity="0.0"
     inkscape:pageshadow="2"
     inkscape:zoom="2.8"
     inkscape:cx="96.070262"
     inkscape:cy="114.23064"
     inkscape:document-units="px"
     inkscape:current-layer="layer1"
     showgrid="false"
     inkscape:window-width="1600"
     inkscape:window-height="845"
     inkscape:window-x="-2"
     inkscape:window-y="-3"
     inkscape:window-maximized="1"
     fit-margin-top="0"
     fit-margin-left="0"
     fit-margin-right="0"
     fit-margin-bottom="0" />
  <defs
     id="defs4">
    <marker
       inkscape:stockid="Arrow2Mend"
       orient="auto"
       refY="0"
       refX="0"
       id="Arrow2Mend"
       style="overflow:visible">
      <path
         id="path4001"
         style="fill-rule:evenodd;stroke-width:0.625;stroke-linejoin:round"
         d="M 8.7185878,4.0337352 -2.2072895,0.01601326 8.7185884,-4.0017078 c -1.7454984,2.3720609 -1.7354408,5.6174519 -6e-7,8.035443 z"
         transform="scale(-0.6,-0.6)"
         inkscape:connector-curvature="0" />
    </marker>
    <marker
       inkscape:stockid="Arrow2Mend"
       orient="auto"
       refY="0"
       refX="0"
       id="Arrow2Mend-7"
       style="overflow:visible">
      <path
         inkscape:connector-curvature="0"
         id="path4001-8"
         style="fill-rule:evenodd;stroke-width:0.625;stroke-linejoin:round"
         d="M 8.7185878,4.0337352 -2.2072895,0.01601326 8.7185884,-4.0017078 c -1.7454984,2.3720609 -1.7354408,5.6174519 -6e-7,8.035443 z"
         transform="scale(-0.6,-0.6)" />
    </marker>
    <marker
       inkscape:stockid="Arrow2Mendj"
       orient="auto"
       refY="0"
       refX="0"
       id="Arrow2Mendj"
       style="overflow:visible">
      <path
         id="path4884"
         style="fill:#ff0000;fill-rule:evenodd;stroke:#ff0000;stroke-width:0.625;stroke-linejoin:round"
         d="M 8.7185878,4.0337352 -2.2072895,0.01601326 8.7185884,-4.0017078 c -1.7454984,2.3720609 -1.7354408,5.6174519 -6e-7,8.035443 z"
         transform="scale(-0.6,-0.6)"
         inkscape:connector-curvature="0" />
    </marker>
    <marker
       inkscape:stockid="Arrow2Menda"
       orient="auto"
       refY="0"
       refX="0"
       id="Arrow2Menda"
       style="overflow:visible">
      <path
         id="path4887"
         style="fill:#000000;fill-rule:evenodd;stroke:#000000;stroke-width:0.625;stroke-linejoin:round"
         d="M 8.7185878,4.0337352 -2.2072895,0.01601326 8.7185884,-4.0017078 c -1.7454984,2.3720609 -1.7354408,5.6174519 -6e-7,8.035443 z"
         transform="scale(-0.6,-0.6)"
         inkscape:connector-curvature="0" />
    </marker>
    <marker
       inkscape:stockid="Arrow2Menda2"
       orient="auto"
       refY="0"
       refX="0"
       id="Arrow2Menda2"
       style="overflow:visible">
      <path
         id="path5086"
         style="fill:#0000ff;fill-rule:evenodd;stroke:#0000ff;stroke-width:0.625;stroke-linejoin:round"
         d="M 8.7185878,4.0337352 -2.2072895,0.01601326 8.7185884,-4.0017078 c -1.7454984,2.3720609 -1.7354408,5.6174519 -6e-7,8.035443 z"
         transform="scale(-0.6,-0.6)"
         inkscape:connector-curvature="0" />
    </marker>
  </defs>
  <metadata
     id="metadata7">
    <rdf:RDF>
      <cc:Work
         rdf:about="">
        <dc:format>image/svg+xml</dc:format>
        <dc:type
           rdf:resource="http://purl.org/dc/dcmitype/StillImage" />
        <dc:title />
      </cc:Work>
    </rdf:RDF>
  </metadata>
  <g
     transform="translate(-103.79124,-261.89343)"
     id="layer1"
     inkscape:groupmode="layer"
     inkscape:label="Layer 1">
    <path
       inkscape:connector-curvature="0"
       id="path2989"
       d="m 125.71429,279.30609 0,195.91324"
       style="fill:none;stroke:#000000;stroke-width:1;stroke-linecap:butt;stroke-linejoin:miter;stroke-miterlimit:4;stroke-opacity:1;stroke-dasharray:none" />
    <path
       inkscape:connector-curvature="0"
       id="path2989-8"
       d="m 317.68276,474.71424 -192.34728,0"
       style="fill:none;stroke:#000000;stroke-width:1;stroke-linecap:butt;stroke-linejoin:miter;stroke-miterlimit:4;stroke-opacity:1;stroke-dasharray:none" />
    <path
       transform="matrix(1.4136475,0,0,1.4136475,37.550742,-320.81713)"
       d="m 92.934035,466.59998 c 0,1.81314 -1.469847,3.28299 -3.282996,3.28299 -1.813148,0 -3.282996,-1.46985 -3.282996,-3.28299 0,-1.81315 1.469848,-3.283 3.282996,-3.283 1.813149,0 3.282996,1.46985 3.282996,3.283 z"
       sodipodi:ry="3.2829957"
       sodipodi:rx="3.2829957"
       sodipodi:cy="466.59998"
       sodipodi:cx="89.651039"
       id="path3028-3-75"
       style="fill:#0000ff;fill-rule:evenodd;stroke:none"
       sodipodi:type="arc" />
    <path
       transform="matrix(1.4136475,0,0,1.4136475,37.550747,-337.2457)"
       d="m 92.934035,466.59998 c 0,1.81314 -1.469847,3.28299 -3.282996,3.28299 -1.813148,0 -3.282996,-1.46985 -3.282996,-3.28299 0,-1.81315 1.469848,-3.283 3.282996,-3.283 1.813149,0 3.282996,1.46985 3.282996,3.283 z"
       sodipodi:ry="3.2829957"
       sodipodi:rx="3.2829957"
       sodipodi:cy="466.59998"
       sodipodi:cx="89.651039"
       id="path3028-3-75-2"
       style="fill:#0000ff;fill-rule:evenodd;stroke:none"
       sodipodi:type="arc" />
    <path
       transform="matrix(1.4136475,0,0,1.4136475,47.550747,-327.95999)"
       d="m 92.934035,466.59998 c 0,1.81314 -1.469847,3.28299 -3.282996,3.28299 -1.813148,0 -3.282996,-1.46985 -3.282996,-3.28299 0,-1.81315 1.469848,-3.283 3.282996,-3.283 1.813149,0 3.282996,1.46985 3.282996,3.283 z"
       sodipodi:ry="3.2829957"
       sodipodi:rx="3.2829957"
       sodipodi:cy="466.59998"
       sodipodi:cx="89.651039"
       id="path3028-3-75-7"
       style="fill:#0000ff;fill-rule:evenodd;stroke:none"
       sodipodi:type="arc" />
    <path
       transform="matrix(1.4136475,0,0,1.4136475,48.265033,-310.81714)"
       d="m 92.934035,466.59998 c 0,1.81314 -1.469847,3.28299 -3.282996,3.28299 -1.813148,0 -3.282996,-1.46985 -3.282996,-3.28299 0,-1.81315 1.469848,-3.283 3.282996,-3.283 1.813149,0 3.282996,1.46985 3.282996,3.283 z"
       sodipodi:ry="3.2829957"
       sodipodi:rx="3.2829957"
       sodipodi:cy="466.59998"
       sodipodi:cx="89.651039"
       id="path3028-3-75-9"
       style="fill:#0000ff;fill-rule:evenodd;stroke:none"
       sodipodi:type="arc" />
    <path
       transform="matrix(1.4136475,0,0,1.4136475,63.265033,-318.67428)"
       d="m 92.934035,466.59998 c 0,1.81314 -1.469847,3.28299 -3.282996,3.28299 -1.813148,0 -3.282996,-1.46985 -3.282996,-3.28299 0,-1.81315 1.469848,-3.283 3.282996,-3.283 1.813149,0 3.282996,1.46985 3.282996,3.283 z"
       sodipodi:ry="3.2829957"
       sodipodi:rx="3.2829957"
       sodipodi:cy="466.59998"
       sodipodi:cx="89.651039"
       id="path3028-3-75-21"
       style="fill:#0000ff;fill-rule:evenodd;stroke:none"
       sodipodi:type="arc" />
    <path
       transform="matrix(1.4136475,0,0,1.4136475,63.265033,-300.81714)"
       d="m 92.934035,466.59998 c 0,1.81314 -1.469847,3.28299 -3.282996,3.28299 -1.813148,0 -3.282996,-1.46985 -3.282996,-3.28299 0,-1.81315 1.469848,-3.283 3.282996,-3.283 1.813149,0 3.282996,1.46985 3.282996,3.283 z"
       sodipodi:ry="3.2829957"
       sodipodi:rx="3.2829957"
       sodipodi:cy="466.59998"
       sodipodi:cx="89.651039"
       id="path3028-3-75-4"
       style="fill:#0000ff;fill-rule:evenodd;stroke:none"
       sodipodi:type="arc" />
    <path
       transform="matrix(1.4136475,0,0,1.4136475,77.550748,-308.67428)"
       d="m 92.934035,466.59998 c 0,1.81314 -1.469847,3.28299 -3.282996,3.28299 -1.813148,0 -3.282996,-1.46985 -3.282996,-3.28299 0,-1.81315 1.469848,-3.283 3.282996,-3.283 1.813149,0 3.282996,1.46985 3.282996,3.283 z"
       sodipodi:ry="3.2829957"
       sodipodi:rx="3.2829957"
       sodipodi:cy="466.59998"
       sodipodi:cx="89.651039"
       id="path3028-3-75-20"
       style="fill:#0000ff;fill-rule:evenodd;stroke:none"
       sodipodi:type="arc" />
    <path
       transform="matrix(1.4136475,0,0,1.4136475,72.550747,-286.53142)"
       d="m 92.934035,466.59998 c 0,1.81314 -1.469847,3.28299 -3.282996,3.28299 -1.813148,0 -3.282996,-1.46985 -3.282996,-3.28299 0,-1.81315 1.469848,-3.283 3.282996,-3.283 1.813149,0 3.282996,1.46985 3.282996,3.283 z"
       sodipodi:ry="3.2829957"
       sodipodi:rx="3.2829957"
       sodipodi:cy="466.59998"
       sodipodi:cx="89.651039"
       id="path3028-3-75-45"
       style="fill:#0000ff;fill-rule:evenodd;stroke:none"
       sodipodi:type="arc" />
    <path
       transform="matrix(1.4136475,0,0,1.4136475,43.979318,-277.95999)"
       d="m 92.934035,466.59998 c 0,1.81314 -1.469847,3.28299 -3.282996,3.28299 -1.813148,0 -3.282996,-1.46985 -3.282996,-3.28299 0,-1.81315 1.469848,-3.283 3.282996,-3.283 1.813149,0 3.282996,1.46985 3.282996,3.283 z"
       sodipodi:ry="3.2829957"
       sodipodi:rx="3.2829957"
       sodipodi:cy="466.59998"
       sodipodi:cx="89.651039"
       id="path3028-3-75-98"
       style="fill:#0000ff;fill-rule:evenodd;stroke:none"
       sodipodi:type="arc" />
    <path
       transform="matrix(1.4136475,0,0,1.4136475,83.265033,-272.24571)"
       d="m 92.934035,466.59998 c 0,1.81314 -1.469847,3.28299 -3.282996,3.28299 -1.813148,0 -3.282996,-1.46985 -3.282996,-3.28299 0,-1.81315 1.469848,-3.283 3.282996,-3.283 1.813149,0 3.282996,1.46985 3.282996,3.283 z"
       sodipodi:ry="3.2829957"
       sodipodi:rx="3.2829957"
       sodipodi:cy="466.59998"
       sodipodi:cx="89.651039"
       id="path3028-3-75-8"
       style="fill:#0000ff;fill-rule:evenodd;stroke:none"
       sodipodi:type="arc" />
    <path
       transform="matrix(1.4136475,0,0,1.4136475,93.265033,-262.95999)"
       d="m 92.934035,466.59998 c 0,1.81314 -1.469847,3.28299 -3.282996,3.28299 -1.813148,0 -3.282996,-1.46985 -3.282996,-3.28299 0,-1.81315 1.469848,-3.283 3.282996,-3.283 1.813149,0 3.282996,1.46985 3.282996,3.283 z"
       sodipodi:ry="3.2829957"
       sodipodi:rx="3.2829957"
       sodipodi:cy="466.59998"
       sodipodi:cx="89.651039"
       id="path3028-3-75-71"
       style="fill:#0000ff;fill-rule:evenodd;stroke:none"
       sodipodi:type="arc" />
    <path
       transform="matrix(1.4136475,0,0,1.4136475,84.693605,-292.95999)"
       d="m 92.934035,466.59998 c 0,1.81314 -1.469847,3.28299 -3.282996,3.28299 -1.813148,0 -3.282996,-1.46985 -3.282996,-3.28299 0,-1.81315 1.469848,-3.283 3.282996,-3.283 1.813149,0 3.282996,1.46985 3.282996,3.283 z"
       sodipodi:ry="3.2829957"
       sodipodi:rx="3.2829957"
       sodipodi:cy="466.59998"
       sodipodi:cx="89.651039"
       id="path3028-3-75-3"
       style="fill:#0000ff;fill-rule:evenodd;stroke:none"
       sodipodi:type="arc" />
    <path
       transform="matrix(1.4136475,0,0,1.4136475,92.550747,-282.24571)"
       d="m 92.934035,466.59998 c 0,1.81314 -1.469847,3.28299 -3.282996,3.28299 -1.813148,0 -3.282996,-1.46985 -3.282996,-3.28299 0,-1.81315 1.469848,-3.283 3.282996,-3.283 1.813149,0 3.282996,1.46985 3.282996,3.283 z"
       sodipodi:ry="3.2829957"
       sodipodi:rx="3.2829957"
       sodipodi:cy="466.59998"
       sodipodi:cx="89.651039"
       id="path3028-3-75-93"
       style="fill:#0000ff;fill-rule:evenodd;stroke:none"
       sodipodi:type="arc" />
    <path
       transform="matrix(1.4136475,0,0,1.4136475,96.122175,-302.96)"
       d="m 92.934035,466.59998 c 0,1.81314 -1.469847,3.28299 -3.282996,3.28299 -1.813148,0 -3.282996,-1.46985 -3.282996,-3.28299 0,-1.81315 1.469848,-3.283 3.282996,-3.283 1.813149,0 3.282996,1.46985 3.282996,3.283 z"
       sodipodi:ry="3.2829957"
       sodipodi:rx="3.2829957"
       sodipodi:cy="466.59998"
       sodipodi:cx="89.651039"
       id="path3028-3-75-34"
       style="fill:#0000ff;fill-rule:evenodd;stroke:none"
       sodipodi:type="arc" />
    <path
       transform="matrix(1.4136475,0,0,1.4136475,89.693604,-317.95999)"
       d="m 92.934035,466.59998 c 0,1.81314 -1.469847,3.28299 -3.282996,3.28299 -1.813148,0 -3.282996,-1.46985 -3.282996,-3.28299 0,-1.81315 1.469848,-3.283 3.282996,-3.283 1.813149,0 3.282996,1.46985 3.282996,3.283 z"
       sodipodi:ry="3.2829957"
       sodipodi:rx="3.2829957"
       sodipodi:cy="466.59998"
       sodipodi:cx="89.651039"
       id="path3028-3-75-34-2"
       style="fill:#0000ff;fill-rule:evenodd;stroke:none"
       sodipodi:type="arc" />
    <path
       transform="matrix(1.4136475,0,0,1.4136475,74.693604,-327.95999)"
       d="m 92.934035,466.59998 c 0,1.81314 -1.469847,3.28299 -3.282996,3.28299 -1.813148,0 -3.282996,-1.46985 -3.282996,-3.28299 0,-1.81315 1.469848,-3.283 3.282996,-3.283 1.813149,0 3.282996,1.46985 3.282996,3.283 z"
       sodipodi:ry="3.2829957"
       sodipodi:rx="3.2829957"
       sodipodi:cy="466.59998"
       sodipodi:cx="89.651039"
       id="path3028-3-75-34-0"
       style="fill:#0000ff;fill-rule:evenodd;stroke:none"
       sodipodi:type="arc" />
    <path
       inkscape:connector-curvature="0"
       id="path3178"
       d="m 132.14286,330.21932 141.42857,135"
       style="fill:none;stroke:#008000;stroke-width:2;stroke-linecap:butt;stroke-linejoin:miter;stroke-miterlimit:4;stroke-opacity:1;stroke-dasharray:none" />
    <text
       sodipodi:linespacing="125%"
       id="text4153"
       y="480.21933"
       x="322.85715"
       style="font-size:40px;font-style:normal;font-weight:normal;line-height:125%;letter-spacing:0px;word-spacing:0px;fill:#000000;fill-opacity:1;stroke:none;font-family:Sans"
       xml:space="preserve"><tspan
         style="font-size:20px"
         y="480.21933"
         x="322.85715"
         id="tspan4155"
         sodipodi:role="line">x</tspan></text>
    <text
       sodipodi:linespacing="125%"
       id="text4153-8"
       y="272.83093"
       x="120.54967"
       style="font-size:40px;font-style:normal;font-weight:normal;line-height:125%;letter-spacing:0px;word-spacing:0px;fill:#000000;fill-opacity:1;stroke:none;font-family:Sans"
       xml:space="preserve"><tspan
         style="font-size:20px"
         y="272.83093"
         x="120.54967"
         id="tspan4155-4"
         sodipodi:role="line">y</tspan></text>
    <text
       sodipodi:linespacing="125%"
       id="text4178"
       y="419.50504"
       x="267.57394"
       style="font-size:40px;font-style:normal;font-weight:normal;line-height:125%;letter-spacing:0px;word-spacing:0px;fill:#008000;fill-opacity:1;stroke:none;font-family:Sans"
       xml:space="preserve"><tspan
         style="font-size:15px;stroke:none;fill:#008000"
         y="419.50504"
         x="267.57394"
         id="tspan4180"
         sodipodi:role="line">state</tspan><tspan
         style="font-size:15px;stroke:none;fill:#008000"
         id="tspan4182"
         y="438.25504"
         x="267.57394"
         sodipodi:role="line">transition</tspan><tspan
         id="tspan5072"
         style="font-size:15px;stroke:none;fill:#008000"
         y="457.00504"
         x="267.57394"
         sodipodi:role="line">boundary</tspan></text>
    <text
       sodipodi:linespacing="125%"
       id="text4178-3-3"
       y="385.31763"
       x="235.16292"
       style="font-size:62.55465317px;font-style:normal;font-weight:normal;line-height:125%;letter-spacing:0px;word-spacing:0px;fill:#0000ff;fill-opacity:1;stroke:none;font-family:Sans"
       xml:space="preserve"><tspan
         style="font-size:23.45799446px;font-style:italic;fill:#0000ff"
         id="tspan4182-6-0"
         y="385.31763"
         x="235.16292"
         sodipodi:role="line">s<tspan
   style="font-size:15.24791145px;font-style:italic;baseline-shift:sub;fill:#0000ff"
   id="tspan4414">2</tspan></tspan></text>
    <text
       transform="translate(121.14537,261.89343)"
       sodipodi:linespacing="125%"
       id="text4231"
       y="81.183037"
       x="-205.71429"
       style="font-size:40px;font-style:normal;font-weight:normal;line-height:125%;letter-spacing:0px;word-spacing:0px;fill:#000000;fill-opacity:1;stroke:none;font-family:Sans"
       xml:space="preserve"><tspan
         y="81.183037"
         x="-205.71429"
         id="tspan4233"
         sodipodi:role="line" /></text>
    <rect
       transform="matrix(0.70710678,-0.70710678,0.70710678,0.70710678,0,0)"
       y="421.72449"
       x="-237.77882"
       height="8.4308281"
       width="8.7550917"
       id="rect4235"
       style="fill:#ff0000;stroke:none" />
    <rect
       transform="matrix(0.70710678,-0.70710678,0.70710678,0.70710678,0,0)"
       y="422.7814"
       x="-222.67329"
       height="8.4308281"
       width="8.7550917"
       id="rect4235-2"
       style="fill:#ff0000;stroke:none" />
    <rect
       transform="matrix(0.70710678,-0.70710678,0.70710678,0.70710678,0,0)"
       y="405.35626"
       x="-141.10349"
       height="8.4308281"
       width="8.7550917"
       id="rect4235-28"
       style="fill:#ff0000;stroke:none" />
    <rect
       transform="matrix(0.70710678,-0.70710678,0.70710678,0.70710678,0,0)"
       y="389.19382"
       x="-136.5578"
       height="8.4308281"
       width="8.7550917"
       id="rect4235-0"
       style="fill:#ff0000;stroke:none" />
    <rect
       transform="matrix(0.70710678,-0.70710678,0.70710678,0.70710678,0,0)"
       y="416.97302"
       x="-150.19485"
       height="8.4308281"
       width="8.7550917"
       id="rect4235-1"
       style="fill:#ff0000;stroke:none" />
    <rect
       transform="matrix(0.70710678,-0.70710678,0.70710678,0.70710678,0,0)"
       y="414.95273"
       x="-167.36745"
       height="8.4308281"
       width="8.7550917"
       id="rect4235-13"
       style="fill:#ff0000;stroke:none" />
    <rect
       transform="matrix(0.70710678,-0.70710678,0.70710678,0.70710678,0,0)"
       y="427.32709"
       x="-165.0946"
       height="8.4308281"
       width="8.7550917"
       id="rect4235-14"
       style="fill:#ff0000;stroke:none" />
    <rect
       transform="matrix(0.70710678,-0.70710678,0.70710678,0.70710678,0,0)"
       y="426.82202"
       x="-181.76212"
       height="8.4308281"
       width="8.7550917"
       id="rect4235-8"
       style="fill:#ff0000;stroke:none" />
    <rect
       transform="matrix(0.70710678,-0.70710678,0.70710678,0.70710678,0,0)"
       y="441.72174"
       x="-178.98421"
       height="8.4308281"
       width="8.7550917"
       id="rect4235-7"
       style="fill:#ff0000;stroke:none" />
    <rect
       transform="matrix(0.70710678,-0.70710678,0.70710678,0.70710678,0,0)"
       y="427.83218"
       x="-203.48039"
       height="8.4308281"
       width="8.7550917"
       id="rect4235-9"
       style="fill:#ff0000;stroke:none" />
    <rect
       transform="matrix(0.70710678,-0.70710678,0.70710678,0.70710678,0,0)"
       y="437.93369"
       x="-208.02609"
       height="8.4308281"
       width="8.7550917"
       id="rect4235-90"
       style="fill:#ff0000;stroke:none" />
    <rect
       transform="matrix(0.70710678,-0.70710678,0.70710678,0.70710678,0,0)"
       y="448.28775"
       x="-195.65172"
       height="8.4308281"
       width="8.7550917"
       id="rect4235-09"
       style="fill:#ff0000;stroke:none" />
    <rect
       transform="matrix(0.70710678,-0.70710678,0.70710678,0.70710678,0,0)"
       y="456.36899"
       x="-176.45882"
       height="8.4308281"
       width="8.7550917"
       id="rect4235-74"
       style="fill:#ff0000;stroke:none" />
    <rect
       transform="matrix(0.70710678,-0.70710678,0.70710678,0.70710678,0,0)"
       y="445.25729"
       x="-159.79129"
       height="8.4308281"
       width="8.7550917"
       id="rect4235-04"
       style="fill:#ff0000;stroke:none" />
    <rect
       transform="matrix(0.70710678,-0.70710678,0.70710678,0.70710678,0,0)"
       y="413.69003"
       x="-187.82304"
       height="8.4308281"
       width="8.7550917"
       id="rect4235-6"
       style="fill:#ff0000;stroke:none" />
    <rect
       transform="matrix(0.70710678,-0.70710678,0.70710678,0.70710678,0,0)"
       y="411.16467"
       x="-204.49055"
       height="8.4308281"
       width="8.7550917"
       id="rect4235-96"
       style="fill:#ff0000;stroke:none" />
    <g
       ns0:preamble=""
       ns0:text="$m/{sec}^2$"
       word-spacing="normal"
       letter-spacing="normal"
       font-size-adjust="none"
       font-stretch="normal"
       font-weight="normal"
       font-variant="normal"
       font-style="normal"
       stroke-miterlimit="10.433"
       xml:space="preserve"
       transform="matrix(1,0,0,-1,-267.6402,905.00004)"
       id="content"
       style="font-style:normal;font-variant:normal;font-weight:normal;font-stretch:normal;letter-spacing:normal;word-spacing:normal;text-anchor:start;fill:none;stroke:#000000;stroke-linecap:butt;stroke-linejoin:miter;stroke-miterlimit:10.43299961;stroke-opacity:1;stroke-dasharray:none;stroke-dashoffset:0">
<path
   id="path4407"
   d="m 224.31,477.82 0,-0.01 -0.01,-0.02 0,-0.01 0,-0.02 -0.01,-0.03 -0.01,-0.03 -0.01,-0.03 0,-0.04 -0.01,-0.03 -0.01,-0.03 0,-0.01 -0.01,-0.02 0,-0.01 0,-0.02 0,-0.01 -0.01,-0.01 0,-0.02 0,-0.01 0,-0.01 -0.01,-0.01 0,-0.01 0,-0.01 0,-0.01 0,0 0,-0.01 0,-0.01 c 0,-0.18 0.14,-0.26 0.29,-0.26 0.12,0 0.29,0.07 0.37,0.27 0,0.02 0.12,0.49 0.18,0.74 l 0.22,0.89 c 0.06,0.22 0.12,0.44 0.17,0.67 0.04,0.17 0.12,0.46 0.13,0.5 0.15,0.3 0.68,1.21 1.62,1.21 0.45,0 0.54,-0.37 0.54,-0.7 0,-0.25 -0.07,-0.53 -0.15,-0.82 l -0.28,-1.16 -0.2,-0.75 c -0.04,-0.2 -0.13,-0.54 -0.13,-0.59 0,-0.18 0.14,-0.26 0.29,-0.26 0.31,0 0.37,0.24 0.45,0.56 0.14,0.56 0.51,2.01 0.6,2.4 0.03,0.12 0.55,1.32 1.64,1.32 0.43,0 0.54,-0.34 0.54,-0.7 0,-0.56 -0.42,-1.7 -0.62,-2.22 -0.09,-0.24 -0.13,-0.35 -0.13,-0.55 0,-0.47 0.35,-0.81 0.82,-0.81 0.93,0 1.3,1.45 1.3,1.53 0,0.1 -0.09,0.1 -0.12,0.1 -0.1,0 -0.1,-0.03 -0.15,-0.18 -0.15,-0.53 -0.47,-1.24 -1.01,-1.24 -0.17,0 -0.24,0.1 -0.24,0.33 0,0.25 0.09,0.49 0.18,0.71 0.18,0.51 0.6,1.62 0.6,2.18 0,0.65 -0.39,1.07 -1.14,1.07 -0.75,0 -1.25,-0.44 -1.62,-0.97 -0.01,0.13 -0.04,0.47 -0.32,0.71 -0.25,0.21 -0.57,0.26 -0.82,0.26 -0.89,0 -1.38,-0.64 -1.55,-0.87 -0.05,0.57 -0.47,0.87 -0.92,0.87 -0.45,0 -0.64,-0.39 -0.73,-0.57 -0.18,-0.35 -0.31,-0.93 -0.31,-0.96 0,-0.1 0.1,-0.1 0.12,-0.1 0.1,0 0.11,0.01 0.17,0.23 0.17,0.7 0.37,1.18 0.73,1.18 0.16,0 0.3,-0.08 0.3,-0.46 0,-0.21 -0.03,-0.32 -0.16,-0.83 z"
   inkscape:connector-curvature="0"
   style="fill:#000000;stroke-width:0" />
<path
   id="path4409"
   d="m 236.55,484.31 0,0 0,0.01 0,0.01 0.01,0 0,0.01 0,0 0,0.01 0.01,0.01 0,0.01 0,0.01 0.01,0.01 0,0.01 0,0 0,0.01 0,0.01 0.01,0.01 0,0 0,0.01 0,0 0,0.01 0,0 0,0.01 0,0 0,0 0.01,0.01 0,0 0,0 0,0.01 0,0 0,0 0,0 0,0 0,0 0,0.01 0,0 c 0,0.11 -0.09,0.19 -0.2,0.19 -0.07,0 -0.14,-0.02 -0.17,-0.08 l -3.45,-9.47 c -0.05,-0.13 -0.05,-0.17 -0.05,-0.18 0,-0.11 0.09,-0.2 0.2,-0.2 0.12,0 0.16,0.07 0.21,0.24 z"
   inkscape:connector-curvature="0"
   style="fill:#000000;stroke-width:0" />
<path
   id="path4411"
   d="m 241.05,480.95 -0.02,0 -0.03,0 -0.03,-0.01 -0.02,0 -0.02,-0.01 -0.03,-0.01 -0.02,0 -0.02,-0.01 -0.02,-0.01 -0.02,-0.01 -0.02,-0.02 -0.02,-0.01 -0.02,-0.01 -0.02,-0.02 -0.02,-0.01 -0.01,-0.02 -0.02,-0.01 -0.01,-0.02 -0.02,-0.01 -0.01,-0.02 -0.01,-0.02 -0.01,-0.02 -0.01,-0.02 -0.01,-0.02 -0.01,-0.02 -0.01,-0.02 0,-0.02 -0.01,-0.02 0,-0.02 0,-0.02 -0.01,-0.02 0,-0.02 c 0,-0.14 0.09,-0.29 0.31,-0.29 0.22,0 0.46,0.17 0.46,0.56 0,0.45 -0.43,0.86 -1.19,0.86 -1.31,0 -1.68,-1.02 -1.68,-1.46 0,-0.77 0.74,-0.92 1.03,-0.98 0.52,-0.1 1.03,-0.21 1.03,-0.75 0,-0.26 -0.23,-1.1 -1.42,-1.1 -0.14,0 -0.9,0 -1.13,0.53 0.37,-0.05 0.62,0.25 0.62,0.53 0,0.23 -0.16,0.34 -0.36,0.34 -0.26,0 -0.56,-0.2 -0.56,-0.65 0,-0.57 0.56,-0.96 1.42,-0.96 1.61,0 2,1.2 2,1.64 0,0.36 -0.19,0.61 -0.31,0.73 -0.27,0.28 -0.55,0.33 -0.99,0.42 -0.36,0.08 -0.76,0.15 -0.76,0.59 0,0.29 0.24,0.9 1.11,0.9 0.25,0 0.75,-0.07 0.9,-0.46 z"
   inkscape:connector-curvature="0"
   style="fill:#000000;stroke-width:0" />
<path
   id="path4413"
   d="m 243.69,479.53 0.03,0 0.03,0 0.03,0 0.04,0 0.04,0 0.04,0 0.04,0 0.04,0.01 0.05,0 0.04,0 0.05,0 0.05,0.01 0.05,0 0.05,0.01 0.1,0.01 0.11,0.01 0.11,0.01 0.11,0.02 0.11,0.02 0.1,0.03 0.06,0.01 0.05,0.02 0.05,0.01 0.05,0.02 0.05,0.02 0.04,0.02 c 0.7,0.3 0.75,0.88 0.75,1.02 0,0.44 -0.38,0.85 -1.06,0.85 v -0.22 c 0.46,0 0.73,-0.29 0.73,-0.63 0,-1.03 -1.59,-1.03 -2,-1.03 h -0.41 c 0.39,1.51 1.42,1.66 1.68,1.66 v 0.22 c -1.11,0 -2.61,-0.97 -2.61,-2.71 0,-1.01 0.59,-1.79 1.56,-1.79 1.42,0 2.26,1.05 2.26,1.17 0,0.06 -0.06,0.13 -0.12,0.13 -0.05,0 -0.07,-0.02 -0.13,-0.1 -0.79,-0.99 -1.87,-0.99 -1.99,-0.99 -0.78,0 -0.86,0.84 -0.86,1.16 0,0.12 0,0.42 0.15,1.03 z"
   inkscape:connector-curvature="0"
   style="fill:#000000;stroke-width:0" />
<path
   id="path4415"
   d="m 250.41,481.01 -0.03,0 -0.03,0 -0.03,0 -0.03,0 -0.02,0 -0.03,-0.01 -0.02,0 -0.01,0 -0.01,0 -0.02,-0.01 -0.01,0 -0.01,0 -0.02,-0.01 -0.01,0 -0.01,-0.01 -0.02,-0.01 -0.01,0 -0.01,-0.01 -0.02,-0.01 -0.01,0 -0.01,-0.01 -0.02,-0.01 -0.01,-0.01 -0.01,-0.01 -0.01,-0.02 -0.02,-0.01 c -0.16,-0.15 -0.18,-0.32 -0.18,-0.39 0,-0.24 0.18,-0.34 0.37,-0.34 0.29,0 0.56,0.23 0.56,0.63 0,0.49 -0.47,0.86 -1.18,0.86 -1.34,0 -2.66,-1.43 -2.66,-2.83 0,-0.89 0.57,-1.67 1.61,-1.67 1.42,0 2.26,1.05 2.26,1.17 0,0.06 -0.06,0.13 -0.12,0.13 -0.05,0 -0.07,-0.02 -0.13,-0.1 -0.79,-0.99 -1.87,-0.99 -1.99,-0.99 -0.63,0 -0.9,0.49 -0.9,1.09 0,0.4 0.2,1.37 0.54,1.98 0.31,0.57 0.86,1 1.4,1 0.34,0 0.72,-0.13 0.86,-0.4 z"
   inkscape:connector-curvature="0"
   style="fill:#000000;stroke-width:0" />
<path
   id="path4417"
   d="m 254.3,482.12 h -0.24 c -0.02,-0.16 -0.09,-0.57 -0.18,-0.64 -0.06,-0.04 -0.59,-0.04 -0.69,-0.04 h -1.28 c 0.73,0.65 0.97,0.84 1.39,1.17 0.52,0.41 1,0.84 1,1.5 0,0.84 -0.74,1.36 -1.63,1.36 -0.87,0 -1.45,-0.61 -1.45,-1.25 0,-0.35 0.3,-0.39 0.37,-0.39 0.17,0 0.37,0.12 0.37,0.37 0,0.13 -0.05,0.37 -0.41,0.37 0.21,0.5 0.69,0.65 1.01,0.65 0.7,0 1.06,-0.54 1.06,-1.11 0,-0.6 -0.43,-1.08 -0.65,-1.33 l -1.68,-1.66 c -0.07,-0.06 -0.07,-0.07 -0.07,-0.27 h 2.87 z"
   inkscape:connector-curvature="0"
   style="fill:#000000;stroke-width:0" />
</g>    <text
       sodipodi:linespacing="125%"
       id="text4178-3-3-8"
       y="415.67953"
       x="-67.897781"
       style="font-size:40px;font-style:normal;font-weight:normal;line-height:125%;letter-spacing:0px;word-spacing:0px;fill:#000000;fill-opacity:1;stroke:none;font-family:Sans"
       xml:space="preserve"><tspan
         style="font-size:10px"
         id="tspan4182-6-0-7"
         y="415.67953"
         x="-67.897781"
         sodipodi:role="line">accelerometer<tspan
   style="font-size:10px;baseline-shift:sub"
   id="tspan4498">x</tspan></tspan></text>
    <g
       ns0:preamble=""
       ns0:text="$m/{sec}^2$"
       word-spacing="normal"
       letter-spacing="normal"
       font-size-adjust="none"
       font-stretch="normal"
       font-weight="normal"
       font-variant="normal"
       font-style="normal"
       stroke-miterlimit="10.433"
       xml:space="preserve"
       transform="matrix(1,0,0,-1,-265.36463,868.91055)"
       id="content-1"
       style="font-style:normal;font-variant:normal;font-weight:normal;font-stretch:normal;letter-spacing:normal;word-spacing:normal;text-anchor:start;fill:none;stroke:#000000;stroke-linecap:butt;stroke-linejoin:miter;stroke-miterlimit:10.43299961;stroke-opacity:1;stroke-dasharray:none;stroke-dashoffset:0">
<path
   id="path4407-3"
   d="m 224.31,477.82 0,-0.01 -0.01,-0.02 0,-0.01 0,-0.02 -0.01,-0.03 -0.01,-0.03 -0.01,-0.03 0,-0.04 -0.01,-0.03 -0.01,-0.03 0,-0.01 -0.01,-0.02 0,-0.01 0,-0.02 0,-0.01 -0.01,-0.01 0,-0.02 0,-0.01 0,-0.01 -0.01,-0.01 0,-0.01 0,-0.01 0,-0.01 0,0 0,-0.01 0,-0.01 c 0,-0.18 0.14,-0.26 0.29,-0.26 0.12,0 0.29,0.07 0.37,0.27 0,0.02 0.12,0.49 0.18,0.74 l 0.22,0.89 c 0.06,0.22 0.12,0.44 0.17,0.67 0.04,0.17 0.12,0.46 0.13,0.5 0.15,0.3 0.68,1.21 1.62,1.21 0.45,0 0.54,-0.37 0.54,-0.7 0,-0.25 -0.07,-0.53 -0.15,-0.82 l -0.28,-1.16 -0.2,-0.75 c -0.04,-0.2 -0.13,-0.54 -0.13,-0.59 0,-0.18 0.14,-0.26 0.29,-0.26 0.31,0 0.37,0.24 0.45,0.56 0.14,0.56 0.51,2.01 0.6,2.4 0.03,0.12 0.55,1.32 1.64,1.32 0.43,0 0.54,-0.34 0.54,-0.7 0,-0.56 -0.42,-1.7 -0.62,-2.22 -0.09,-0.24 -0.13,-0.35 -0.13,-0.55 0,-0.47 0.35,-0.81 0.82,-0.81 0.93,0 1.3,1.45 1.3,1.53 0,0.1 -0.09,0.1 -0.12,0.1 -0.1,0 -0.1,-0.03 -0.15,-0.18 -0.15,-0.53 -0.47,-1.24 -1.01,-1.24 -0.17,0 -0.24,0.1 -0.24,0.33 0,0.25 0.09,0.49 0.18,0.71 0.18,0.51 0.6,1.62 0.6,2.18 0,0.65 -0.39,1.07 -1.14,1.07 -0.75,0 -1.25,-0.44 -1.62,-0.97 -0.01,0.13 -0.04,0.47 -0.32,0.71 -0.25,0.21 -0.57,0.26 -0.82,0.26 -0.89,0 -1.38,-0.64 -1.55,-0.87 -0.05,0.57 -0.47,0.87 -0.92,0.87 -0.45,0 -0.64,-0.39 -0.73,-0.57 -0.18,-0.35 -0.31,-0.93 -0.31,-0.96 0,-0.1 0.1,-0.1 0.12,-0.1 0.1,0 0.11,0.01 0.17,0.23 0.17,0.7 0.37,1.18 0.73,1.18 0.16,0 0.3,-0.08 0.3,-0.46 0,-0.21 -0.03,-0.32 -0.16,-0.83 z"
   inkscape:connector-curvature="0"
   style="fill:#000000;stroke-width:0" />
<path
   id="path4409-3"
   d="m 236.55,484.31 0,0 0,0.01 0,0.01 0.01,0 0,0.01 0,0 0,0.01 0.01,0.01 0,0.01 0,0.01 0.01,0.01 0,0.01 0,0 0,0.01 0,0.01 0.01,0.01 0,0 0,0.01 0,0 0,0.01 0,0 0,0.01 0,0 0,0 0.01,0.01 0,0 0,0 0,0.01 0,0 0,0 0,0 0,0 0,0 0,0.01 0,0 c 0,0.11 -0.09,0.19 -0.2,0.19 -0.07,0 -0.14,-0.02 -0.17,-0.08 l -3.45,-9.47 c -0.05,-0.13 -0.05,-0.17 -0.05,-0.18 0,-0.11 0.09,-0.2 0.2,-0.2 0.12,0 0.16,0.07 0.21,0.24 z"
   inkscape:connector-curvature="0"
   style="fill:#000000;stroke-width:0" />
<path
   id="path4411-7"
   d="m 241.05,480.95 -0.02,0 -0.03,0 -0.03,-0.01 -0.02,0 -0.02,-0.01 -0.03,-0.01 -0.02,0 -0.02,-0.01 -0.02,-0.01 -0.02,-0.01 -0.02,-0.02 -0.02,-0.01 -0.02,-0.01 -0.02,-0.02 -0.02,-0.01 -0.01,-0.02 -0.02,-0.01 -0.01,-0.02 -0.02,-0.01 -0.01,-0.02 -0.01,-0.02 -0.01,-0.02 -0.01,-0.02 -0.01,-0.02 -0.01,-0.02 -0.01,-0.02 0,-0.02 -0.01,-0.02 0,-0.02 0,-0.02 -0.01,-0.02 0,-0.02 c 0,-0.14 0.09,-0.29 0.31,-0.29 0.22,0 0.46,0.17 0.46,0.56 0,0.45 -0.43,0.86 -1.19,0.86 -1.31,0 -1.68,-1.02 -1.68,-1.46 0,-0.77 0.74,-0.92 1.03,-0.98 0.52,-0.1 1.03,-0.21 1.03,-0.75 0,-0.26 -0.23,-1.1 -1.42,-1.1 -0.14,0 -0.9,0 -1.13,0.53 0.37,-0.05 0.62,0.25 0.62,0.53 0,0.23 -0.16,0.34 -0.36,0.34 -0.26,0 -0.56,-0.2 -0.56,-0.65 0,-0.57 0.56,-0.96 1.42,-0.96 1.61,0 2,1.2 2,1.64 0,0.36 -0.19,0.61 -0.31,0.73 -0.27,0.28 -0.55,0.33 -0.99,0.42 -0.36,0.08 -0.76,0.15 -0.76,0.59 0,0.29 0.24,0.9 1.11,0.9 0.25,0 0.75,-0.07 0.9,-0.46 z"
   inkscape:connector-curvature="0"
   style="fill:#000000;stroke-width:0" />
<path
   id="path4413-8"
   d="m 243.69,479.53 0.03,0 0.03,0 0.03,0 0.04,0 0.04,0 0.04,0 0.04,0 0.04,0.01 0.05,0 0.04,0 0.05,0 0.05,0.01 0.05,0 0.05,0.01 0.1,0.01 0.11,0.01 0.11,0.01 0.11,0.02 0.11,0.02 0.1,0.03 0.06,0.01 0.05,0.02 0.05,0.01 0.05,0.02 0.05,0.02 0.04,0.02 c 0.7,0.3 0.75,0.88 0.75,1.02 0,0.44 -0.38,0.85 -1.06,0.85 v -0.22 c 0.46,0 0.73,-0.29 0.73,-0.63 0,-1.03 -1.59,-1.03 -2,-1.03 h -0.41 c 0.39,1.51 1.42,1.66 1.68,1.66 v 0.22 c -1.11,0 -2.61,-0.97 -2.61,-2.71 0,-1.01 0.59,-1.79 1.56,-1.79 1.42,0 2.26,1.05 2.26,1.17 0,0.06 -0.06,0.13 -0.12,0.13 -0.05,0 -0.07,-0.02 -0.13,-0.1 -0.79,-0.99 -1.87,-0.99 -1.99,-0.99 -0.78,0 -0.86,0.84 -0.86,1.16 0,0.12 0,0.42 0.15,1.03 z"
   inkscape:connector-curvature="0"
   style="fill:#000000;stroke-width:0" />
<path
   id="path4415-3"
   d="m 250.41,481.01 -0.03,0 -0.03,0 -0.03,0 -0.03,0 -0.02,0 -0.03,-0.01 -0.02,0 -0.01,0 -0.01,0 -0.02,-0.01 -0.01,0 -0.01,0 -0.02,-0.01 -0.01,0 -0.01,-0.01 -0.02,-0.01 -0.01,0 -0.01,-0.01 -0.02,-0.01 -0.01,0 -0.01,-0.01 -0.02,-0.01 -0.01,-0.01 -0.01,-0.01 -0.01,-0.02 -0.02,-0.01 c -0.16,-0.15 -0.18,-0.32 -0.18,-0.39 0,-0.24 0.18,-0.34 0.37,-0.34 0.29,0 0.56,0.23 0.56,0.63 0,0.49 -0.47,0.86 -1.18,0.86 -1.34,0 -2.66,-1.43 -2.66,-2.83 0,-0.89 0.57,-1.67 1.61,-1.67 1.42,0 2.26,1.05 2.26,1.17 0,0.06 -0.06,0.13 -0.12,0.13 -0.05,0 -0.07,-0.02 -0.13,-0.1 -0.79,-0.99 -1.87,-0.99 -1.99,-0.99 -0.63,0 -0.9,0.49 -0.9,1.09 0,0.4 0.2,1.37 0.54,1.98 0.31,0.57 0.86,1 1.4,1 0.34,0 0.72,-0.13 0.86,-0.4 z"
   inkscape:connector-curvature="0"
   style="fill:#000000;stroke-width:0" />
<path
   id="path4417-1"
   d="m 254.3,482.12 h -0.24 c -0.02,-0.16 -0.09,-0.57 -0.18,-0.64 -0.06,-0.04 -0.59,-0.04 -0.69,-0.04 h -1.28 c 0.73,0.65 0.97,0.84 1.39,1.17 0.52,0.41 1,0.84 1,1.5 0,0.84 -0.74,1.36 -1.63,1.36 -0.87,0 -1.45,-0.61 -1.45,-1.25 0,-0.35 0.3,-0.39 0.37,-0.39 0.17,0 0.37,0.12 0.37,0.37 0,0.13 -0.05,0.37 -0.41,0.37 0.21,0.5 0.69,0.65 1.01,0.65 0.7,0 1.06,-0.54 1.06,-1.11 0,-0.6 -0.43,-1.08 -0.65,-1.33 l -1.68,-1.66 c -0.07,-0.06 -0.07,-0.07 -0.07,-0.27 h 2.87 z"
   inkscape:connector-curvature="0"
   style="fill:#000000;stroke-width:0" />
</g>    <text
       sodipodi:linespacing="125%"
       id="text4178-3-3-8-2"
       y="379.59003"
       x="-65.622208"
       style="font-size:40px;font-style:normal;font-weight:normal;line-height:125%;letter-spacing:0px;word-spacing:0px;fill:#000000;fill-opacity:1;stroke:none;font-family:Sans"
       xml:space="preserve"><tspan
         style="font-size:10px"
         id="tspan4182-6-0-7-1"
         y="379.59003"
         x="-65.622208"
         sodipodi:role="line">accelerometer<tspan
   style="font-size:65.00091553%;baseline-shift:sub"
   id="tspan4545">y</tspan></tspan></text>
    <text
       sodipodi:linespacing="125%"
       id="text4178-3-3-8-4"
       y="489.47745"
       x="216.29156"
       style="font-size:40px;font-style:normal;font-weight:normal;line-height:125%;letter-spacing:0px;word-spacing:0px;fill:#000000;fill-opacity:1;stroke:none;font-family:Sans"
       xml:space="preserve"><tspan
         style="font-size:10px;font-style:italic"
         id="tspan4182-6-0-7-0"
         y="489.47745"
         x="216.29156"
         sodipodi:role="line">d<tspan
   style="font-size:65.00091553%;font-style:italic;baseline-shift:sub"
   id="tspan3086">1</tspan></tspan></text>
    <text
       sodipodi:linespacing="125%"
       id="text4178-3-3-8-4-8"
       y="380.06152"
       x="103.33225"
       style="font-size:40px;font-style:normal;font-weight:normal;line-height:125%;letter-spacing:0px;word-spacing:0px;fill:#000000;fill-opacity:1;stroke:none;font-family:Sans"
       xml:space="preserve"><tspan
         style="font-size:10px;font-style:italic"
         id="tspan4182-6-0-7-0-3"
         y="380.06152"
         x="103.33225"
         sodipodi:role="line">d<tspan
   style="font-size:65.00091553%;font-style:italic;baseline-shift:sub"
   id="tspan3112">2</tspan></tspan></text>
    <text
       xml:space="preserve"
       style="font-size:40px;font-style:normal;font-weight:normal;line-height:125%;letter-spacing:0px;word-spacing:0px;fill:#ff0000;fill-opacity:1;stroke:#ff0000;font-family:Sans"
       x="164.97838"
       y="442.25006"
       id="text3116"
       sodipodi:linespacing="125%"><tspan
         sodipodi:role="line"
         id="tspan3118"
         x="164.97838"
         y="442.25006"
         style="font-size:15px;fill:#ff0000;stroke:#ff0000">+</tspan></text>
    <text
       xml:space="preserve"
       style="font-size:40px;font-style:normal;font-weight:normal;line-height:125%;letter-spacing:0px;word-spacing:0px;fill:#0000ff;fill-opacity:1;stroke:#0000ff;font-family:Sans"
       x="188.6942"
       y="357.09506"
       id="text3116-4"
       sodipodi:linespacing="125%"><tspan
         sodipodi:role="line"
         id="tspan3118-4"
         x="188.6942"
         y="357.09506"
         style="font-size:15px;fill:#0000ff;stroke:#0000ff">+</tspan></text>
    <path
       style="fill:#0000ff;stroke:#0000ff;stroke-width:1px;stroke-linecap:butt;stroke-linejoin:miter;stroke-opacity:1;marker-end:url(#Arrow2Menda2)"
       d="m 224.69377,319.82036 -26.42858,26.42858"
       id="path3200"
       inkscape:connector-curvature="0" />
    <g
       id="g4542"
       transform="matrix(2.2051887,0,0,-2.2051887,-265.81134,1372.2436)"
       xml:space="preserve"
       stroke-miterlimit="10.433"
       font-style="normal"
       font-variant="normal"
       font-weight="normal"
       font-stretch="normal"
       font-size-adjust="none"
       letter-spacing="normal"
       word-spacing="normal"
       ns0:text="$\\mu_2$"
       ns0:preamble=""
       style="font-style:normal;font-variant:normal;font-weight:normal;font-stretch:normal;letter-spacing:normal;word-spacing:normal;text-anchor:start;fill:#0000ff;fill-opacity:1;fill-rule:evenodd;stroke:#000000;stroke-linecap:butt;stroke-linejoin:miter;stroke-miterlimit:10.43299961;stroke-opacity:1;stroke-dasharray:none;stroke-dashoffset:0">
<path
   inkscape:connector-curvature="0"
   style="fill:#0000ff;stroke-width:0"
   d="m 225.73,480.72 0,0.02 0.01,0.02 0.01,0.02 0,0.03 0.01,0.02 0,0.02 0.01,0.05 0.02,0.05 0.01,0.05 0.01,0.05 0.01,0.05 0.01,0.02 0,0.03 0.01,0.02 0.01,0.02 0,0.02 0,0.02 0.01,0.02 0,0.02 0.01,0.01 0,0.02 0,0.01 0,0.01 0.01,0.02 0,0 0,0.01 0,0.01 0,0 c 0,0.17 -0.12,0.27 -0.29,0.27 -0.03,0 -0.31,-0.01 -0.4,-0.36 l -1.43,-5.75 c -0.03,-0.12 -0.03,-0.14 -0.03,-0.16 0,-0.15 0.11,-0.27 0.28,-0.27 0.21,0 0.33,0.18 0.35,0.21 0.04,0.09 0.17,0.6 0.54,2.13 0.32,-0.26 0.77,-0.3 0.97,-0.3 0.7,0 1.08,0.44 1.32,0.72 0.09,-0.45 0.46,-0.72 0.9,-0.72 0.35,0 0.57,0.22 0.73,0.54 0.17,0.36 0.3,0.97 0.3,0.99 0,0.1 -0.09,0.1 -0.12,0.1 -0.1,0 -0.11,-0.05 -0.14,-0.18 -0.16,-0.65 -0.34,-1.24 -0.75,-1.24 -0.27,0 -0.3,0.26 -0.3,0.46 0,0.22 0.12,0.69 0.2,1.03 l 0.28,1.08 c 0.03,0.15 0.13,0.52 0.17,0.67 0.05,0.23 0.15,0.61 0.15,0.67 0,0.18 -0.14,0.27 -0.29,0.27 -0.05,0 -0.31,-0.01 -0.39,-0.35 l -0.47,-1.86 c -0.12,-0.5 -0.23,-0.91 -0.26,-1.01 -0.01,-0.05 -0.49,-0.96 -1.29,-0.96 -0.5,0 -0.74,0.33 -0.74,0.87 0,0.29 0.07,0.56 0.14,0.84 z"
   id="path4544" />
<path
   inkscape:connector-curvature="0"
   style="fill:#0000ff;stroke-width:0"
   d="m 232.95,477.01 h -0.24 c -0.02,-0.16 -0.09,-0.57 -0.18,-0.64 -0.05,-0.04 -0.59,-0.04 -0.68,-0.04 h -1.29 c 0.73,0.65 0.98,0.84 1.4,1.17 0.51,0.41 0.99,0.84 0.99,1.5 0,0.84 -0.74,1.36 -1.63,1.36 -0.86,0 -1.45,-0.61 -1.45,-1.25 0,-0.35 0.3,-0.39 0.37,-0.39 0.17,0 0.37,0.12 0.37,0.37 0,0.13 -0.05,0.37 -0.41,0.37 0.22,0.49 0.69,0.65 1.02,0.65 0.69,0 1.06,-0.54 1.06,-1.11 0,-0.6 -0.43,-1.08 -0.66,-1.33 l -1.68,-1.66 c -0.07,-0.06 -0.07,-0.07 -0.07,-0.27 h 2.87 z"
   id="path4546" />
</g>    <g
       style="font-style:normal;font-variant:normal;font-weight:normal;font-stretch:normal;letter-spacing:normal;word-spacing:normal;text-anchor:start;fill:#ff0000;fill-opacity:1;fill-rule:evenodd;stroke:#000000;stroke-linecap:butt;stroke-linejoin:miter;stroke-miterlimit:10.43299961;stroke-opacity:1;stroke-dasharray:none;stroke-dashoffset:0"
       ns0:preamble=""
       ns0:text="$\\mu_1$"
       word-spacing="normal"
       letter-spacing="normal"
       font-size-adjust="none"
       font-stretch="normal"
       font-weight="normal"
       font-variant="normal"
       font-style="normal"
       stroke-miterlimit="10.433"
       xml:space="preserve"
       transform="matrix(2.2051887,0,0,-2.2051887,-361.41155,1458.6955)"
       id="g4754">
<path
   inkscape:connector-curvature="0"
   id="path4756"
   d="m 225.73,480.72 0,0.02 0.01,0.02 0.01,0.02 0,0.03 0.01,0.02 0,0.02 0.01,0.05 0.02,0.05 0.01,0.05 0.01,0.05 0.01,0.05 0.01,0.02 0,0.03 0.01,0.02 0.01,0.02 0,0.02 0,0.02 0.01,0.02 0,0.02 0.01,0.01 0,0.02 0,0.01 0,0.01 0.01,0.02 0,0 0,0.01 0,0.01 0,0 c 0,0.17 -0.12,0.27 -0.29,0.27 -0.03,0 -0.31,-0.01 -0.4,-0.36 l -1.43,-5.75 c -0.03,-0.12 -0.03,-0.14 -0.03,-0.16 0,-0.15 0.11,-0.27 0.28,-0.27 0.21,0 0.33,0.18 0.35,0.21 0.04,0.09 0.17,0.6 0.54,2.13 0.32,-0.26 0.77,-0.3 0.97,-0.3 0.7,0 1.08,0.44 1.32,0.72 0.09,-0.45 0.46,-0.72 0.9,-0.72 0.35,0 0.57,0.22 0.73,0.54 0.17,0.36 0.3,0.97 0.3,0.99 0,0.1 -0.09,0.1 -0.12,0.1 -0.1,0 -0.11,-0.05 -0.14,-0.18 -0.16,-0.65 -0.34,-1.24 -0.75,-1.24 -0.27,0 -0.3,0.26 -0.3,0.46 0,0.22 0.12,0.69 0.2,1.03 l 0.28,1.08 c 0.03,0.15 0.13,0.52 0.17,0.67 0.05,0.23 0.15,0.61 0.15,0.67 0,0.18 -0.14,0.27 -0.29,0.27 -0.05,0 -0.31,-0.01 -0.39,-0.35 l -0.47,-1.86 c -0.12,-0.5 -0.23,-0.91 -0.26,-1.01 -0.01,-0.05 -0.49,-0.96 -1.29,-0.96 -0.5,0 -0.74,0.33 -0.74,0.87 0,0.29 0.07,0.56 0.14,0.84 z"
   style="fill:#ff0000;stroke-width:0" />
<path
   inkscape:connector-curvature="0"
   id="path4758"
   d="m 231.77,480.16 0,0.01 0,0.01 0,0.01 0,0.01 0,0 0,0.01 0,0.01 0,0.01 0,0 0,0.01 0,0.01 0,0 -0.01,0.01 0,0 0,0.01 0,0 0,0.01 0,0 0,0.01 0,0.01 -0.01,0.01 0,0 0,0.01 -0.01,0.01 0,0 -0.01,0.01 -0.01,0 0,0 -0.01,0.01 -0.01,0 -0.01,0 -0.01,0 0,0 -0.01,0 0,0 -0.01,0.01 0,0 -0.01,0 -0.01,0 0,0 -0.01,0 -0.01,0 0,0 -0.01,0 -0.01,0 -0.01,0 0,0 -0.01,0 -0.01,0 -0.01,0 c -0.45,-0.44 -1.08,-0.45 -1.37,-0.45 v -0.25 c 0.17,0 0.63,0 1.01,0.2 v -3.55 c 0,-0.23 0,-0.32 -0.69,-0.32 h -0.27 v -0.25 c 0.13,0.01 0.99,0.03 1.24,0.03 0.22,0 1.1,-0.02 1.25,-0.03 v 0.25 h -0.27 c -0.69,0 -0.69,0.09 -0.69,0.32 z"
   style="fill:#ff0000;stroke-width:0" />
</g>    <path
       style="fill:#0000ff;stroke:#ff0000;stroke-width:1px;stroke-linecap:butt;stroke-linejoin:miter;stroke-opacity:1;marker-end:url(#Arrow2Mendj)"
       d="m 137.96889,407.88555 26.42858,26.42858"
       id="path3200-7"
       inkscape:connector-curvature="0" />
    <text
       sodipodi:linespacing="125%"
       id="text4178-3-3-83"
       y="465.18747"
       x="215.78091"
       style="font-size:62.55465317px;font-style:normal;font-weight:normal;line-height:125%;letter-spacing:0px;word-spacing:0px;fill:#ff0000;fill-opacity:1;stroke:none;font-family:Sans"
       xml:space="preserve"><tspan
         style="font-size:23.45799446px;font-style:italic;fill:#ff0000"
         id="tspan4182-6-0-78"
         y="465.18747"
         x="215.78091"
         sodipodi:role="line">s<tspan
   style="font-size:65.00091553%;baseline-shift:sub"
   id="tspan5299">1</tspan></tspan></text>
  </g>
</svg>
